<svg width="24" height="24" viewBox="0 0 24 24" fill="none" xmlns="http://www.w3.org/2000/svg">
<path d="M9.70345 3.22162L2.63245 10.2926C2.25751 10.6677 2.04688 11.1763 2.04688 11.7066C2.04688 12.2369 2.25751 12.7456 2.63245 13.1206L8.28845 18.7776C8.47419 18.9636 8.69477 19.1111 8.93757 19.2117C9.18036 19.3124 9.44062 19.3642 9.70345 19.3642C9.96628 19.3642 10.2265 19.3124 10.4693 19.2117C10.7121 19.1111 10.9327 18.9636 11.1184 18.7776L18.1884 11.7066L9.70345 3.22162ZM9.70345 3.22162L8.28945 1.80762" stroke="black" stroke-width="1.5" stroke-linecap="round" stroke-linejoin="round"/>
<path d="M20 15C20 15 23 17.993 23 19.887C23 21.542 21.655 22.887 20 22.887C18.345 22.887 17.012 21.542 17 19.887C17.01 17.992 20 15 20 15Z" stroke="black" stroke-width="1.5" stroke-miterlimit="1.5" stroke-linecap="round" stroke-linejoin="round"/>
</svg>
