<svg width="24" height="24" viewBox="0 0 24 24" fill="none" xmlns="http://www.w3.org/2000/svg">
<path d="M4.88465 6.25558L6.94054 18.9236C7.03458 19.5035 7.32738 20.0306 7.76679 20.4108C8.2062 20.7911 8.76367 20.9999 9.33989 21H12.5974M19.1144 6.25558L17.0595 18.9236C16.9654 19.5035 16.6726 20.0306 16.2332 20.4108C15.7938 20.7911 15.2363 20.9999 14.6601 21H11.4026M10.0755 11.1221V16.1335M13.9245 11.1221V16.1335M3 6.25558H21M14.7019 6.25558V4.48883C14.7019 4.09397 14.5482 3.71528 14.2745 3.43607C14.0008 3.15686 13.6296 3 13.2425 3H10.7575C10.3704 3 9.99922 3.15686 9.72552 3.43607C9.45182 3.71528 9.29805 4.09397 9.29805 4.48883V6.25558H14.7019Z" stroke="black" stroke-width="1.5" stroke-linecap="round" stroke-linejoin="round"/>
</svg>
