<svg width="766" height="888" viewBox="0 0 766 888" fill="none" xmlns="http://www.w3.org/2000/svg">
<g clip-path="url(#clip0_3051_9470)">
<path d="M468.5 689.213C467.017 650.769 468.039 612.367 475.045 572.968C470.493 569.098 465.733 565.282 460.313 561.235C456.235 558.19 451.783 555.014 446.763 551.586C438.917 592.315 435.448 637.565 435.253 692.201C441.281 691.704 446.016 691.304 452.5 690.713C457.197 690.285 463.525 689.689 468.5 689.213Z" fill="#94DBEF"/>
<path d="M501.521 484.2C518.148 445.217 542.341 404.676 577 361.713C576.573 351.967 573.733 343.756 569.13 336.713C567.391 334.053 565.401 331.56 563.194 329.213C560.852 326.722 558.266 324.397 555.477 322.213C550.749 318.511 545.44 315.216 539.752 312.213C546.112 333.876 537.492 352.371 509.718 391.713C493.525 418.847 480.415 444.75 469.976 471.238C474.948 472.635 480.18 474.537 486.496 477.253C490.888 479.141 495.804 481.422 501.521 484.2Z" fill="#94DBEF"/>
<path d="M285 201.713C280.5 204.213 289.5 256.713 271 274.713C274 280.239 278.262 285.105 283.5 289.337C296.574 264.607 298.858 245.272 299 206.685C292.753 205.358 287.894 203.711 285 201.713Z" fill="#FFE333"/>
<path d="M283.5 289.337C292.006 296.211 303.084 301.41 315.5 305.04C326.748 308.328 339.094 310.329 351.62 311.119C352.119 308.884 354.114 307.213 356.5 307.213C359.017 307.213 361.099 309.072 361.449 311.493C374.91 311.669 388.304 310.478 400.5 308.017C404.654 307.179 408.669 306.193 412.5 305.064C400.016 282.471 400.143 252.582 396 209.866C364.204 212.124 322.109 211.594 299 206.685C298.858 245.272 296.574 264.607 283.5 289.337Z" fill="#036896"/>
<path d="M428 299.196C413.53 265.352 414.314 244.64 412.5 208.325C407.483 208.929 401.92 209.446 396 209.866C400.143 252.582 400.016 282.471 412.5 305.064C418.106 303.411 423.32 301.451 428 299.196Z" fill="#005971"/>
<path d="M437.5 201.713C406.5 185.713 293.5 192.213 285 201.713C287.894 203.711 292.753 205.358 299 206.685C322.109 211.594 364.204 212.124 396 209.866C401.92 209.446 407.483 208.929 412.5 208.325C417.982 207.666 422.811 206.904 426.743 206.051C432.57 204.788 436.424 203.327 437.5 201.713Z" fill="#005971"/>
<path fill-rule="evenodd" clip-rule="evenodd" d="M400.5 312.172V312.213L428 353.213L404.5 408.713L425 443.713L416 474.713C418.192 471.581 421.945 472.51 426.169 473.555C428.689 474.179 431.376 474.844 434 474.713C439.222 474.452 443.206 473.291 447.078 472.164C452.552 470.57 457.8 469.041 466 470.213C467.317 470.522 468.637 470.861 469.976 471.238C480.415 444.75 493.525 418.847 509.718 391.713C537.492 352.371 546.112 333.876 539.752 312.213C526.813 305.381 511.914 300.058 497.442 294.888C482.763 289.644 468.524 284.557 457.22 278.213C453.263 285.55 446.984 291.877 439.036 297.133C428.585 304.044 415.247 309.103 400.5 312.172ZM440 299.213L465 315.713L457.5 354.713L430.5 326.213L440 299.213ZM457.5 354.713C458.436 356.76 459.346 358.666 460.193 360.439C465.365 371.273 468.164 377.135 460 379.713C451.734 381.829 452.59 374.024 457.5 354.713Z" fill="#036896"/>
<path d="M451.5 274.713C450.258 280.664 446.74 285.956 441.5 290.543C440.246 291.64 438.894 292.697 437.451 293.713L439.036 297.133C446.984 291.877 453.263 285.55 457.22 278.213C455.217 277.088 453.305 275.924 451.5 274.713Z" fill="#FFE333"/>
<path d="M437.451 293.713C434.63 295.699 431.461 297.528 428 299.196C423.32 301.451 418.106 303.411 412.5 305.064C408.669 306.193 404.654 307.179 400.5 308.017V312.172C415.247 309.103 428.585 304.044 439.036 297.133L437.451 293.713Z" fill="#FFE333"/>
<path d="M400.5 308.017C388.304 310.478 374.91 311.669 361.449 311.493C361.482 311.728 361.5 311.968 361.5 312.213C361.5 313.513 361.004 314.697 360.191 315.586C374.042 315.984 387.794 314.817 400.5 312.172V308.017Z" fill="#FFE333"/>
<path d="M315.5 305.04V308.017L315.831 308.61C327.525 312.141 339.978 314.318 352.493 315.204C352.445 315.14 352.399 315.075 352.354 315.008C351.815 314.21 351.5 313.248 351.5 312.213C351.5 311.837 351.541 311.471 351.62 311.119C339.094 310.329 326.748 308.328 315.5 305.04Z" fill="#FFE333"/>
<path d="M315.5 308.017V305.04C303.084 301.41 292.006 296.211 283.5 289.337L282.278 292.901C291.925 299.576 303.168 304.728 315.235 308.428L315.5 308.017Z" fill="#FFE333"/>
<path d="M283.5 289.337C278.262 285.105 274 280.239 271 274.713C269.557 275.92 267.857 277.083 265.935 278.213C270.596 283.744 276.111 288.634 282.278 292.901L283.5 289.337Z" fill="#FFE333"/>
<path d="M383 356.213L400.5 324.713L419.5 353.213L403.5 391.713L383 356.213Z" fill="#B03F13"/>
<path d="M358.5 502.713L385.5 445.713L356.5 383.713L329.5 445.713L358.5 502.713Z" fill="#E06539"/>
<path d="M315.5 320.713L296.5 350.713L313.5 391.713L331.5 352.713L315.5 320.713Z" fill="#B03F13"/>
<path d="M280 303.213L267.5 318.713L273.5 339.213L285.5 322.213L280 303.213Z" fill="#B03F13"/>
<path d="M443 307.713L438.5 324.713L454 341.713L458 319.213L443 307.713Z" fill="#B03F13"/>
<path d="M407.5 423.713L405 445.213L414.5 462.213L419 443.713L407.5 423.713Z" fill="#B03F13"/>
<path d="M358.5 539.213L351 559.213L359.5 576.713L367.5 559.213L358.5 539.213Z" fill="#B03F13"/>
<path fill-rule="evenodd" clip-rule="evenodd" d="M356.5 361.213L325.115 429.213L321.5 437.046L317.5 445.713L319.85 450.213L323.245 456.713L358.5 524.213L396.5 445.713L356.5 361.213ZM385.5 445.713L358.5 502.713L329.5 445.713L356.5 383.713L385.5 445.713Z" fill="#FFE333"/>
<path fill-rule="evenodd" clip-rule="evenodd" d="M375 356.213L404.5 408.713L428 353.213L400.5 312.213L375 356.213ZM400.5 324.713L383 356.213L403.5 391.713L419.5 353.213L400.5 324.713Z" fill="#FFE333"/>
<path fill-rule="evenodd" clip-rule="evenodd" d="M425 443.713L404.5 408.713L398.5 445.713L416 474.713L425 443.713ZM405 445.213L407.5 423.713L419 443.713L414.5 462.213L405 445.213Z" fill="#FFE333"/>
<path fill-rule="evenodd" clip-rule="evenodd" d="M358.5 524.213L343.5 559.213L359.5 590.713L374.5 559.213L358.5 524.213ZM351 559.213L358.5 539.213L367.5 559.213L359.5 576.713L351 559.213Z" fill="#FFE333"/>
<path d="M359.5 590.713C350.386 610.434 350.19 616.708 359.5 617.213C370.056 616.612 366.8 607.819 359.5 590.713Z" fill="#FFE333"/>
<path fill-rule="evenodd" clip-rule="evenodd" d="M440 299.213L430.5 326.213L457.5 354.713L465 315.713L440 299.213ZM438.5 324.713L443 307.713L458 319.213L454 341.713L438.5 324.713Z" fill="#FFE333"/>
<path d="M416 474.713C405.828 490.111 403.212 496.403 410 498.713C412.078 499.323 413.742 499.512 415.03 499.227C413.665 493.288 414.131 490.117 418.56 491.839C418.526 488.753 417.961 484.649 416.951 479.4C416.32 478.023 416 476.463 416 474.713Z" fill="#FFE333"/>
<path d="M457.5 354.713C452.59 374.024 451.734 381.829 460 379.713C468.164 377.135 465.365 371.273 460.193 360.439C459.346 358.666 458.436 356.76 457.5 354.713Z" fill="#FFE333"/>
<path fill-rule="evenodd" clip-rule="evenodd" d="M288 350.713L313.5 408.713L340.5 352.713L315.831 308.61C315.632 308.55 315.434 308.489 315.235 308.428L288 350.713ZM296.5 350.713L315.5 320.713L331.5 352.713L313.5 391.713L296.5 350.713Z" fill="#FFE333"/>
<path fill-rule="evenodd" clip-rule="evenodd" d="M282 293.713L260.5 317.713L271 354.713L292.5 323.713L282 293.713ZM267.5 318.713L280 303.213L285.5 322.213L273.5 339.213L267.5 318.713Z" fill="#FFE333"/>
<path d="M356.5 361.213C359.261 361.213 361.5 358.974 361.5 356.213C361.5 353.451 359.261 351.213 356.5 351.213C353.739 351.213 351.5 353.451 351.5 356.213C351.5 358.974 353.739 361.213 356.5 361.213Z" fill="#FFE333"/>
<path d="M361.5 345.213C361.5 347.974 359.261 350.213 356.5 350.213C353.739 350.213 351.5 347.974 351.5 345.213C351.5 342.451 353.739 340.213 356.5 340.213C359.261 340.213 361.5 342.451 361.5 345.213Z" fill="#FFE333"/>
<path d="M361.5 334.213C361.5 336.974 359.261 339.213 356.5 339.213C353.739 339.213 351.5 336.974 351.5 334.213C351.5 331.451 353.739 329.213 356.5 329.213C359.261 329.213 361.5 331.451 361.5 334.213Z" fill="#FFE333"/>
<path d="M361.5 323.213C361.5 325.974 359.261 328.213 356.5 328.213C353.739 328.213 351.5 325.974 351.5 323.213C351.5 320.451 353.739 318.213 356.5 318.213C359.261 318.213 361.5 320.451 361.5 323.213Z" fill="#FFE333"/>
<path d="M361.449 311.493C361.099 309.072 359.017 307.213 356.5 307.213C354.114 307.213 352.119 308.884 351.62 311.119C351.541 311.471 351.5 311.837 351.5 312.213C351.5 313.248 351.815 314.21 352.354 315.008C352.399 315.075 352.445 315.14 352.493 315.204C355.058 315.385 357.626 315.512 360.191 315.586C361.004 314.697 361.5 313.513 361.5 312.213C361.5 311.968 361.482 311.728 361.449 311.493Z" fill="#FFE333"/>
<path d="M356.5 317.213C357.961 317.213 359.276 316.586 360.191 315.586C357.626 315.512 355.058 315.385 352.493 315.204C353.404 316.423 354.86 317.213 356.5 317.213Z" fill="#FFE333"/>
<path d="M484 541.213C481.53 546.035 475.472 544.245 465.34 538.078C459.575 534.569 452.492 529.643 444 523.713C442.522 522.333 441.301 521.002 440.275 519.713C437.712 516.492 436.364 513.529 435.253 510.713C434.818 509.611 434.42 508.532 434 507.469C432.818 504.475 431.461 501.607 428.627 498.713C426.549 496.591 423.678 494.456 419.5 492.249C419.168 492.09 418.855 491.953 418.56 491.839C414.131 490.117 413.665 493.288 415.03 499.227C415.209 500.009 415.421 500.84 415.659 501.713C416.582 505.095 417.908 509.124 419.354 513.518C420.318 516.449 421.336 519.542 422.323 522.713C423.173 525.011 423.816 526.973 424.381 528.697C427.259 537.475 428.119 540.101 444 549.713C444.94 550.346 445.861 550.97 446.763 551.586C451.783 555.014 456.235 558.19 460.313 561.235C465.733 565.282 470.493 569.098 475.045 572.968C493.675 577.125 501 581.713 511.5 588.713C522 595.713 596.441 674.213 596.441 674.213L624 631.713C572.218 613.89 555.392 603.052 530 566.213C510.758 538.298 522.5 503.713 501.521 484.2C495.804 481.422 490.888 479.141 486.496 477.253C480.18 474.537 474.948 472.635 469.976 471.238C468.637 470.861 467.317 470.522 466 470.213C457.8 469.041 452.552 470.57 447.078 472.164C443.206 473.291 439.222 474.452 434 474.713C431.376 474.844 428.689 474.179 426.169 473.555C421.945 472.51 418.192 471.581 416 474.713C416 476.463 416.32 478.023 416.951 479.4C420.29 486.675 432.346 488.815 452 486.713C468 485.213 481.413 490.945 484.645 512.213C485.123 515.363 485.384 518.853 485.403 522.713C485.406 523.234 485.404 523.762 485.398 524.297C485.367 526.935 485.228 529.737 484.974 532.713C484.745 535.403 484.422 538.234 484 541.213Z" fill="#FFE5AE"/>
<path d="M554 579.213C530 544.213 535.5 503.213 522.5 494.713C514.41 490.581 507.524 487.117 501.521 484.2C522.5 503.713 510.758 538.298 530 566.213C555.392 603.052 572.218 613.89 624 631.713C591.988 613.921 575.232 603.209 554 579.213Z" fill="#E2B186"/>
<path d="M501.5 597.213C540.674 638.126 555.302 658.685 582.5 695.713L596.441 674.213C596.441 674.213 522 595.713 511.5 588.713C501 581.713 493.675 577.125 475.045 572.968C483.592 580.233 491.41 587.688 501.5 597.213Z" fill="#DDC27D"/>
<path d="M484.645 512.213C481.413 490.945 468 485.213 452 486.713C432.346 488.815 420.29 486.675 416.951 479.4C417.961 484.649 418.526 488.753 418.56 491.839C418.855 491.953 419.168 492.09 419.5 492.249C418.586 490.188 418.393 488.978 418.8 486.713C421.593 491.194 426.179 495.125 432 496.713C443 499.713 470.5 493.713 484.645 512.213Z" fill="#E2B186"/>
<path d="M484.645 512.213C470.5 493.713 443 499.713 432 496.713C426.179 495.125 421.593 491.194 418.8 486.713C418.393 488.978 418.586 490.188 419.5 492.249C423.678 494.456 426.549 496.591 428.627 498.713C431.461 501.607 432.818 504.475 434 507.469C453.981 508.314 465.168 507.068 485.403 522.713C485.384 518.853 485.123 515.363 484.645 512.213Z" fill="#D99C66"/>
<path d="M435.253 510.713C436.364 513.529 437.712 516.492 440.275 519.713C452.61 520.421 461.684 521.107 469.318 523.516C475.099 525.34 480.054 528.153 484.974 532.713C485.228 529.737 485.367 526.935 485.398 524.297C485.404 523.762 485.406 523.234 485.403 522.713C465.168 507.068 453.981 508.314 434 507.469C434.42 508.532 434.818 509.611 435.253 510.713Z" fill="#CC8342"/>
<path fill-rule="evenodd" clip-rule="evenodd" d="M157.964 329.213C152.194 343.181 157.964 358.713 178.5 391.713C241.981 499.059 268.195 561.629 264 691.092C269.503 691.61 274.827 692.085 280 692.519C280.061 563.956 260.371 487.673 200.388 391.713C174.701 354.383 166.262 336.239 176 315.411C169.273 319.459 163.132 324.01 157.964 329.213Z" fill="#94DBEF"/>
<path d="M142 361.713C214.723 482.498 254.275 550.489 245 689.213C251.578 689.892 257.898 690.518 264 691.092C268.195 561.629 241.981 499.059 178.5 391.713C157.964 358.713 152.194 343.181 157.964 329.213C155.181 332.016 152.68 335.008 150.522 338.213C145.943 345.013 142.909 352.772 142 361.713Z" fill="#FFE333"/>
<path fill-rule="evenodd" clip-rule="evenodd" d="M465.34 538.078C459.575 534.569 452.492 529.643 444 523.713C442.522 522.333 441.301 521.002 440.275 519.713C452.61 520.421 461.684 521.107 469.318 523.516C467.907 528.283 466.58 533.133 465.34 538.078Z" fill="#94DBEF"/>
<path d="M484 541.213C484.422 538.234 484.745 535.403 484.974 532.713C480.054 528.153 475.099 525.34 469.318 523.516C467.907 528.283 466.58 533.133 465.34 538.078C475.472 544.245 481.53 546.035 484 541.213Z" fill="#FFE333"/>
<path d="M475.29 573.292C468.284 612.691 467.262 651.093 468.745 689.537C463.77 690.013 457.442 690.609 452.745 691.037C449.991 639.514 453.885 597.724 460.559 561.56C465.979 565.606 470.738 569.423 475.29 573.292Z" fill="#FFE333"/>
<path d="M577.245 362.037C542.586 405 518.393 445.541 501.766 484.524C496.049 481.746 491.133 479.465 486.741 477.577C499.093 449.932 514.447 423.734 532.124 395.537C546.993 371.084 559.887 359.662 563.44 329.537C565.646 331.884 567.637 334.377 569.375 337.037C573.979 344.081 576.818 352.292 577.245 362.037Z" fill="#FFE333"/>
<path fill-rule="evenodd" clip-rule="evenodd" d="M438.91 215.789C438.835 233.478 438.71 262.932 451.5 274.713C450.258 280.664 446.74 285.956 441.5 290.543C426.974 260.706 426.893 241.453 426.753 208.361C426.751 208.049 426.75 207.736 426.749 207.422C426.747 206.968 426.745 206.511 426.743 206.051C432.57 204.788 436.424 203.327 437.5 201.713C438.971 201.386 438.946 207.201 438.91 215.789Z" fill="#FFE333"/>
<path d="M428 299.196C431.461 297.528 434.63 295.699 437.451 293.713C438.894 292.697 440.246 291.64 441.5 290.543C426.974 260.706 426.893 241.453 426.753 208.361L426.749 207.422C426.747 206.968 426.745 206.511 426.743 206.051C422.811 206.904 417.982 207.666 412.5 208.325C414.314 244.64 413.53 265.352 428 299.196Z" fill="#94DBEF"/>
<path d="M313.5 421.713L304 441.213L314 460.713L319.85 450.213L317.5 445.713L321.5 437.046L313.5 421.713Z" fill="#B03F13"/>
<path fill-rule="evenodd" clip-rule="evenodd" d="M400.5 312.213V312.172C387.794 314.817 374.042 315.984 360.191 315.586C359.276 316.586 357.961 317.213 356.5 317.213C354.86 317.213 353.404 316.423 352.493 315.204C339.978 314.318 327.525 312.141 315.831 308.61L340.5 352.713L313.5 408.713L288 350.713L315.235 308.428C303.168 304.728 291.925 299.576 282.278 292.901C276.111 288.634 270.596 283.744 265.935 278.213C257.558 283.139 244.952 287.459 230.932 292.263C212.968 298.419 192.683 305.37 176 315.411C166.262 336.239 174.701 354.383 200.388 391.713C260.371 487.673 280.061 563.956 280 692.519C337.953 697.379 376.93 697.007 435.253 692.201C435.448 637.565 438.917 592.315 446.763 551.586C445.861 550.97 444.94 550.346 444 549.713C428.119 540.101 427.259 537.475 424.381 528.697C423.816 526.973 423.173 525.011 422.323 522.713C421.336 519.542 420.318 516.449 419.354 513.518C417.908 509.124 416.582 505.095 415.659 501.713C415.421 500.84 415.209 500.009 415.03 499.227C413.742 499.512 412.078 499.323 410 498.713C403.212 496.403 405.828 490.111 416 474.713L398.5 445.713L404.5 408.713L375 356.213L400.5 312.213ZM325.115 429.213L313.5 408.713L296.5 441.213L313.5 473.555L323.245 456.713L358.5 524.213L343.5 559.213L359.5 590.713C350.386 610.434 350.19 616.708 359.5 617.213C370.056 616.612 366.8 607.819 359.5 590.713L374.5 559.213L358.5 524.213L396.5 445.713L356.5 361.213C359.261 361.213 361.5 358.974 361.5 356.213C361.5 353.451 359.261 351.213 356.5 351.213C353.739 351.213 351.5 353.451 351.5 356.213C351.5 358.974 353.739 361.213 356.5 361.213L325.115 429.213ZM282 293.713L292.5 323.713L271 354.713L260.5 317.713L282 293.713ZM356.5 350.213C359.261 350.213 361.5 347.974 361.5 345.213C361.5 342.451 359.261 340.213 356.5 340.213C353.739 340.213 351.5 342.451 351.5 345.213C351.5 347.974 353.739 350.213 356.5 350.213ZM356.5 339.213C359.261 339.213 361.5 336.974 361.5 334.213C361.5 331.451 359.261 329.213 356.5 329.213C353.739 329.213 351.5 331.451 351.5 334.213C351.5 336.974 353.739 339.213 356.5 339.213ZM356.5 328.213C359.261 328.213 361.5 325.974 361.5 323.213C361.5 320.451 359.261 318.213 356.5 318.213C353.739 318.213 351.5 320.451 351.5 323.213C351.5 325.974 353.739 328.213 356.5 328.213Z" fill="#036896"/>
<path d="M313.5 408.713L296.5 441.213L313.5 473.555L323.245 456.713L319.85 450.213L314 460.713L304 441.213L313.5 421.713L321.5 437.046L325.115 429.213L313.5 408.713Z" fill="#FFE333"/>
</g>
<defs>
<clipPath id="clip0_3051_9470">
<rect width="766" height="888" fill="white"/>
</clipPath>
</defs>
</svg>
