<svg width="766" height="888" viewBox="0 0 766 888" fill="none" xmlns="http://www.w3.org/2000/svg">
<path d="M324.341 353.63C324.341 358.541 320.355 362.522 315.438 362.522C310.521 362.522 306.535 358.541 306.535 353.63C306.535 348.72 310.521 344.739 315.438 344.739C320.355 344.739 324.341 348.72 324.341 353.63Z" fill="black"/>
<path d="M172.986 353.63C172.986 358.541 169 362.522 164.082 362.522C159.165 362.522 155.179 358.541 155.179 353.63C155.179 348.72 159.165 344.739 164.082 344.739C169 344.739 172.986 348.72 172.986 353.63Z" fill="black"/>
<path d="M250.687 360.504C250.687 396.44 279.858 425.572 315.843 425.572C342.435 425.572 365.306 409.663 375.434 386.856C268.898 452.732 235.713 336.337 282.253 304.738C263.337 316.125 250.687 336.839 250.687 360.504Z" fill="#005971"/>
<path d="M100.95 360.504C100.95 396.44 130.121 425.572 166.106 425.572C193.322 425.572 216.64 408.908 226.389 385.239C127.037 452.904 81.49 339.686 134.135 303.795C114.326 314.956 100.95 336.17 100.95 360.504Z" fill="#005971"/>
<path d="M282.253 304.738C235.713 336.337 268.898 452.732 375.434 386.856C285.491 434.545 245.426 351.695 282.253 304.738Z" fill="#BCD4E0"/>
<path d="M134.135 303.795C92.5109 343.812 137.205 437.927 226.389 385.239C127.037 452.904 81.49 339.686 134.135 303.795Z" fill="#BCD4E0"/>
<path d="M375.434 386.856C379.011 378.8 380.998 369.884 380.998 360.504C358.335 379.177 332.299 382.738 313.414 374.429C303.409 373.711 292.801 369.696 279.42 362.522C281.512 356.373 284.355 351.309 287.712 347.249C283.97 329.989 283.176 320.041 290.752 300.436C287.803 301.666 284.963 303.106 282.253 304.738C245.426 351.695 285.491 434.545 375.434 386.856Z" fill="#0285A9"/>
<path d="M226.389 385.239C229.529 377.613 231.262 369.261 231.262 360.504C204.938 378.982 181.262 381.607 163.988 374.527L163.915 374.525C153.359 374.197 142.276 370.141 128.065 362.522C130.444 355.529 133.794 349.939 137.767 345.634C133.521 332.523 134.122 316.669 141.015 300.436C138.648 301.423 136.351 302.546 134.135 303.795C92.5109 343.812 137.205 437.927 226.389 385.239Z" fill="#0285A9"/>
<path d="M332.331 338.333C341.299 342.88 348.672 350.969 351.86 361.713C337.231 371.166 325.783 375.317 313.414 374.429C332.299 382.738 358.335 379.177 380.998 360.504C380.998 355.068 380.331 349.787 379.073 344.739C358.958 344.739 343.573 342.965 332.331 338.333Z" fill="#49A7C0"/>
<path d="M290.752 300.436C283.176 320.041 283.97 329.989 287.712 347.249C298.77 333.874 315.411 331.391 329.197 336.914C314.841 329.781 308.199 317.057 307.749 295.933C301.797 296.67 296.094 298.208 290.752 300.436Z" fill="#49A7C0"/>
<path d="M157.607 295.985C151.802 296.74 146.236 298.258 141.015 300.436C134.122 316.669 133.521 332.523 137.767 345.634C157.448 324.306 192.424 334.476 200.505 361.713C186.639 370.673 175.631 374.869 163.988 374.527C181.262 381.607 204.938 378.982 231.262 360.504C231.262 355.068 230.594 349.787 229.336 344.739C171.971 344.673 160.514 331.228 157.607 295.985Z" fill="#49A7C0"/>
<path d="M315.843 295.436C313.102 295.436 310.401 295.605 307.749 295.933C308.199 317.057 314.841 329.781 329.197 336.914C330.26 337.34 331.306 337.813 332.331 338.333C343.573 342.965 358.958 344.739 379.073 344.739C372.016 316.421 346.383 295.436 315.843 295.436Z" fill="#40C7EB"/>
<path d="M166.106 295.436C163.226 295.436 160.389 295.623 157.607 295.985C160.514 331.228 171.971 344.673 229.336 344.739C222.28 316.421 196.647 295.436 166.106 295.436Z" fill="#40C7EB"/>
<path d="M333.244 353.63C333.244 363.451 325.272 371.413 315.438 371.413C305.604 371.413 297.631 363.451 297.631 353.63C297.631 349.399 299.111 345.513 301.582 342.461C292.961 345.875 285.137 352.598 279.42 362.522C292.801 369.696 303.409 373.711 313.414 374.429C325.783 375.317 337.231 371.166 351.86 361.713C345.588 352.253 337.736 345.907 329.393 342.585C331.804 345.618 333.244 349.456 333.244 353.63Z" fill="#D0ECFA"/>
<path d="M181.889 353.63C181.889 363.451 173.917 371.413 164.082 371.413C154.248 371.413 146.276 363.451 146.276 353.63C146.276 349.399 147.756 345.513 150.226 342.46C146.298 344.017 142.534 346.26 139.061 349.18C134.912 352.667 131.176 357.12 128.065 362.522C142.276 370.141 153.359 374.197 163.915 374.525L163.988 374.527C175.631 374.869 186.639 370.673 200.505 361.713C194.232 352.253 186.38 345.907 178.038 342.585C180.449 345.618 181.889 349.456 181.889 353.63Z" fill="#D0ECFA"/>
<path fill-rule="evenodd" clip-rule="evenodd" d="M315.438 371.413C325.272 371.413 333.244 363.451 333.244 353.63C333.244 349.456 331.804 345.618 329.393 342.585C320.234 338.937 310.483 338.935 301.582 342.461C299.111 345.513 297.631 349.399 297.631 353.63C297.631 363.451 305.604 371.413 315.438 371.413ZM315.438 362.522C320.355 362.522 324.341 358.541 324.341 353.63C324.341 348.72 320.355 344.739 315.438 344.739C310.521 344.739 306.535 348.72 306.535 353.63C306.535 358.541 310.521 362.522 315.438 362.522Z" fill="#005971"/>
<path fill-rule="evenodd" clip-rule="evenodd" d="M164.082 371.413C173.917 371.413 181.889 363.451 181.889 353.63C181.889 349.456 180.449 345.618 178.038 342.585C168.878 338.937 159.127 338.935 150.226 342.46C147.756 345.513 146.276 349.399 146.276 353.63C146.276 363.451 154.248 371.413 164.082 371.413ZM164.082 362.522C169 362.522 172.986 358.541 172.986 353.63C172.986 348.72 169 344.739 164.082 344.739C159.165 344.739 155.179 348.72 155.179 353.63C155.179 358.541 159.165 362.522 164.082 362.522Z" fill="#005971"/>
<path d="M279.42 362.522C285.137 352.598 292.961 345.875 301.582 342.461C310.483 338.935 320.234 338.937 329.393 342.585C337.736 345.907 345.588 352.253 351.86 361.713C348.672 350.969 341.299 342.88 332.331 338.333C331.248 337.887 330.203 337.414 329.197 336.914C315.411 331.391 298.77 333.874 287.712 347.249C284.355 351.309 281.512 356.373 279.42 362.522Z" fill="black"/>
<path d="M200.505 361.713C192.424 334.476 157.448 324.306 137.767 345.634C133.794 349.939 130.444 355.529 128.065 362.522C131.176 357.12 134.912 352.667 139.061 349.18C142.534 346.26 146.298 344.017 150.226 342.46C159.127 338.935 168.878 338.937 178.038 342.585C186.38 345.907 194.232 352.253 200.505 361.713Z" fill="black"/>
<path fill-rule="evenodd" clip-rule="evenodd" d="M334.189 436.34C368.474 428.098 393.948 397.272 393.948 360.504C393.948 323.687 368.407 292.828 334.054 284.635C330.243 283.726 326.323 283.096 322.318 282.768C320.182 282.593 318.023 282.503 315.843 282.503C311.854 282.503 307.935 282.802 304.106 283.378C300.796 283.876 297.554 284.582 294.394 285.481C290.192 286.677 286.134 288.216 282.253 290.065C280.881 290.718 279.532 291.41 278.206 292.14C270.821 296.203 264.165 301.425 258.484 307.561C250.489 316.195 244.424 326.639 240.974 338.208C238.868 345.272 237.737 352.756 237.737 360.504C237.737 368.252 238.868 375.736 240.974 382.8C244.477 394.549 250.678 405.137 258.858 413.848C263.52 418.813 268.825 423.168 274.64 426.781C286.6 434.212 300.72 438.504 315.843 438.504C322.161 438.504 328.305 437.755 334.189 436.34ZM315.843 425.572C279.858 425.572 250.687 396.44 250.687 360.504C250.687 336.839 263.337 316.125 282.253 304.738C284.963 303.106 287.803 301.666 290.752 300.436C296.094 298.208 301.797 296.67 307.749 295.933C310.401 295.605 313.102 295.436 315.843 295.436C346.383 295.436 372.016 316.421 379.073 344.739C380.331 349.787 380.998 355.068 380.998 360.504C380.998 369.884 379.011 378.8 375.434 386.856C365.306 409.663 342.435 425.572 315.843 425.572Z" fill="#EBC93D"/>
<path fill-rule="evenodd" clip-rule="evenodd" d="M88 360.504C88 403.582 122.969 438.504 166.106 438.504C171.943 438.504 177.631 437.865 183.103 436.652C210.794 430.515 232.954 409.699 240.974 382.8C238.868 375.736 237.737 368.252 237.737 360.504C237.737 352.756 238.868 345.272 240.974 338.208C233.111 311.835 211.656 291.309 184.722 284.733C178.756 283.276 172.521 282.503 166.106 282.503C122.969 282.503 88 317.425 88 360.504ZM166.106 425.572C130.121 425.572 100.95 396.44 100.95 360.504C100.95 336.17 114.326 314.956 134.135 303.795C136.351 302.546 138.648 301.423 141.015 300.436C146.236 298.258 151.802 296.74 157.607 295.985C160.389 295.623 163.226 295.436 166.106 295.436C196.647 295.436 222.28 316.421 229.336 344.739C230.594 349.787 231.262 355.068 231.262 360.504C231.262 369.261 229.529 377.613 226.389 385.239C216.64 408.908 193.322 425.572 166.106 425.572Z" fill="#EBC93D"/>
<path d="M334.054 284.635C368.407 292.828 393.948 323.687 393.948 360.504C393.948 397.272 368.474 428.098 334.189 436.34C346.804 438.732 358.242 438.742 368.453 436.866C378.192 435.077 386.814 431.571 394.274 426.781C440.215 397.283 442.103 319.052 389.497 292.639C386.425 291.097 383.167 289.732 379.722 288.563C378.944 288.299 378.156 288.045 377.359 287.801C367.82 284.886 356.906 283.439 344.576 283.856C341.176 283.972 337.669 284.228 334.054 284.635Z" fill="#E06539"/>
<path d="M240.974 382.8C232.954 409.699 210.794 430.515 183.103 436.652C186.475 437.461 189.853 438.06 193.22 438.45C196.609 438.843 199.987 439.024 203.338 438.993C211.244 438.92 219.001 437.67 226.389 435.248C232.531 433.235 238.42 430.411 243.929 426.781C249.305 423.238 254.321 418.926 258.858 413.848C250.678 405.137 244.477 394.549 240.974 382.8Z" fill="#E06539"/>
<path d="M184.722 284.733C211.656 291.309 233.111 311.835 240.974 338.208C244.424 326.639 250.489 316.195 258.484 307.561C251.327 301.209 244.821 296.321 238.546 292.652C232.717 289.244 227.088 286.887 221.32 285.386C210.383 282.539 198.95 282.768 184.722 284.733Z" fill="#E06539"/>
<path d="M447.773 426.781C445.177 408.372 443.258 392.39 441.702 377.304C438.81 349.258 437.174 324.312 434.777 292.639H389.497C442.103 319.052 440.215 397.283 394.274 426.781H447.773Z" fill="#B03F13"/>
<path d="M258.858 413.848C254.321 418.926 249.305 423.238 243.929 426.781H274.64C268.825 423.168 263.52 418.813 258.858 413.848Z" fill="#B03F13"/>
<path d="M238.546 292.652C244.821 296.321 251.327 301.209 258.484 307.561C264.165 301.425 270.821 296.203 278.206 292.14L265.256 292.307L252.306 292.474L238.546 292.652Z" fill="#B03F13"/>
<path d="M463.052 250.573C472.469 255.714 478.894 265.88 480.148 281.288L462.746 274.907C461.297 260.139 448.538 250.737 433.204 248.399C425.482 250.433 417.369 254.183 409.327 259.602C401.14 265.118 393.027 272.364 385.471 281.291C383.514 283.602 381.595 286.027 379.722 288.563C383.167 289.732 386.425 291.097 389.497 292.639H434.777C437.174 324.312 438.81 349.258 441.702 377.304C460.034 359.462 476.112 346.485 491.503 336.914C503.944 329.177 515.937 323.665 528.307 319.607C547.43 313.333 567.455 310.534 591.439 308.357C594.453 308.084 597.53 307.82 600.676 307.561C599.128 299.75 597.66 291.104 596.295 280.884L580.108 274.907C576.893 260.402 571.029 254.182 559.468 245.582C554.091 245.961 548.223 247.595 541.881 250.573C551.436 256.022 557.929 266.282 559.468 280.884L543.5 274.907C540.61 262.942 534.474 256.626 522.564 246.037C516.026 246.184 508.945 247.729 501.597 250.74C510.267 256.159 516.585 266.112 518.594 280.884L501.597 274.907C498.165 260.93 491.722 255.536 480.148 245.962C474.607 246.418 468.826 247.967 463.052 250.573Z" fill="#F6EAC1"/>
<path d="M278.206 292.14C279.532 291.41 280.881 290.718 282.253 290.065C286.134 288.216 290.192 286.677 294.394 285.481C294.676 284.386 294.767 283.541 294.798 281.291C294.375 271.314 290.994 263.389 285.895 257.575C283.527 254.875 280.787 252.63 277.801 250.846C261.583 241.159 238.089 245.088 227.215 263.591C226.393 264.989 225.644 266.471 224.975 268.036C240.165 255.912 263.324 264.621 265.256 292.307L278.206 292.14Z" fill="#F6EAC1"/>
<path d="M317.866 250.478C305.822 243.038 289.636 243.192 277.801 250.846C280.787 252.63 283.527 254.875 285.895 257.575C294.394 258.337 304.106 267.632 304.106 283.378C307.935 282.802 311.854 282.503 315.843 282.503C318.023 282.503 320.182 282.593 322.318 282.768C326.323 283.096 330.243 283.726 334.054 284.635C335.283 272.951 330.715 262.653 324.341 255.839C322.322 253.68 320.121 251.871 317.866 250.478Z" fill="#F6EAC1"/>
<path d="M359.954 250.409C347.493 242.978 330.671 244.416 317.866 250.478C320.121 251.871 322.322 253.68 324.341 255.839C334.054 258.337 341.182 265.715 344.576 283.856C356.906 283.439 367.82 284.886 377.359 287.801C378.313 276.871 374.15 264.159 366.5 255.839C364.538 253.705 362.347 251.861 359.954 250.409Z" fill="#F6EAC1"/>
<path d="M409.327 259.602C390.711 245.723 377.322 243.134 359.954 250.409C362.347 251.861 364.538 253.705 366.5 255.839C375.333 260.762 381.175 266.566 385.471 281.291C393.027 272.364 401.14 265.118 409.327 259.602Z" fill="#F6EAC1"/>
<path d="M447.773 426.781C453.599 454.605 459.439 467.611 472.864 487.403C493.579 434.157 495.658 400.374 491.503 336.914C476.112 346.485 460.034 359.462 441.702 377.304C443.258 392.39 445.177 408.372 447.773 426.781Z" fill="#E8D89D"/>
<path d="M472.864 487.403L466.719 514.885C491.734 484.355 512.129 460.541 524.09 433.333C537.092 403.759 540.13 370.177 528.307 319.607C515.937 323.665 503.944 329.177 491.503 336.914C495.658 400.374 493.579 434.157 472.864 487.403Z" fill="#DDC27D"/>
<path d="M265.256 504.463C261.302 475.869 255.703 459.289 226.389 435.248C219.001 437.67 211.244 438.92 203.338 438.993C215.615 517.339 224.403 565.094 300.059 635.946L343.362 628.599C319.448 553.765 302.24 527.908 265.256 504.463Z" fill="#E8D89D"/>
<path d="M466.719 514.885L463.556 529.03C453.257 572.247 446.544 589.092 434.777 620.772L484.195 630.292C480.424 559.23 495.968 513.435 524.09 433.333C512.129 460.541 491.734 484.355 466.719 514.885Z" fill="#D7B79B"/>
<path d="M265.256 504.463C282.662 476.178 271.223 452.282 243.929 426.781C238.42 430.411 232.531 433.235 226.389 435.248C255.703 459.289 261.302 475.869 265.256 504.463Z" fill="#D7B79B"/>
<path d="M591.439 308.357C567.455 310.534 547.43 313.333 528.307 319.607C540.13 370.177 537.092 403.759 524.09 433.333C495.968 513.435 480.424 559.23 484.195 630.292C521.427 562.799 586.583 482.553 592.248 461.623C603.085 425.49 601.998 387.5 591.439 308.357Z" fill="#E2B186"/>
<path d="M347.004 487.403C358.285 470.058 362.756 458.79 368.453 436.866C358.242 438.742 346.804 438.732 334.189 436.34C328.305 437.755 322.161 438.504 315.843 438.504C306.723 470.525 294.64 484.402 265.256 504.463C305.821 507.574 322.801 502.836 347.004 487.403Z" fill="#E2B186"/>
<path d="M480.148 281.288C478.894 265.88 472.469 255.714 463.052 250.573C454.88 246.112 444.456 245.434 433.204 248.399C448.538 250.737 461.297 260.139 462.746 274.907L480.148 281.288Z" fill="#E2B186"/>
<path d="M518.594 280.884C516.585 266.112 510.267 256.159 501.597 250.74C495.408 246.872 488.021 245.314 480.148 245.962C491.722 255.536 498.165 260.93 501.597 274.907L518.594 280.884Z" fill="#E2B186"/>
<path d="M559.468 280.884C557.929 266.282 551.436 256.022 541.881 250.573C536.347 247.417 529.786 245.875 522.564 246.037C534.474 256.626 540.61 262.942 543.5 274.907L559.468 280.884Z" fill="#E2B186"/>
<path d="M596.295 280.884C590.057 257.211 577.542 244.308 559.468 245.582C571.029 254.182 576.893 260.402 580.108 274.907L596.295 280.884Z" fill="#E2B186"/>
<path d="M238.546 292.652L252.306 292.474L265.256 292.307C263.324 264.621 240.165 255.912 224.975 268.036C222.861 272.981 221.553 278.76 221.32 285.386C227.088 286.887 232.717 289.244 238.546 292.652Z" fill="#E2B186"/>
<path d="M294.798 281.291C294.767 283.541 294.676 284.386 294.394 285.481C297.554 284.582 300.796 283.876 304.106 283.378C304.106 267.632 294.394 258.337 285.895 257.575C290.994 263.389 294.375 271.314 294.798 281.291Z" fill="#E2B186"/>
<path d="M324.341 255.839C330.715 262.653 335.283 272.951 334.054 284.635C337.669 284.228 341.176 283.972 344.576 283.856C341.182 265.715 334.054 258.337 324.341 255.839Z" fill="#E2B186"/>
<path d="M379.722 288.563C381.595 286.027 383.514 283.602 385.471 281.291C381.175 266.566 375.333 260.762 366.5 255.839C374.15 264.159 378.313 276.871 377.359 287.801C378.156 288.045 378.944 288.299 379.722 288.563Z" fill="#E2B186"/>
<path d="M621.791 450.626C614.328 376.958 611.111 352.897 604.159 323.503C602.962 318.441 601.798 313.22 600.676 307.561C597.53 307.82 594.453 308.084 591.439 308.357C601.998 387.5 603.085 425.49 592.248 461.623C586.583 482.553 521.427 562.799 484.195 630.292L521.832 637.543C596.661 548.397 602.731 513.775 621.791 450.626Z" fill="#D99C66"/>
<path d="M352.67 516.259L347.004 487.403C322.801 502.836 305.821 507.574 265.256 504.463C302.24 527.908 319.448 553.765 343.362 628.599L389.497 620.772C373.057 584.37 364.72 564.085 355.098 528.626L352.67 516.259Z" fill="#D99C66"/>
<path d="M193.22 438.45C192.482 472.375 191.721 491.288 203.338 529.03C220.285 571.907 232.696 596.975 258.484 643L300.059 635.946C224.403 565.094 215.615 517.339 203.338 438.993C199.987 439.024 196.609 438.843 193.22 438.45Z" fill="#DDC27D"/>
<path d="M612.078 525.393C620.776 497.677 622.139 484.185 621.791 450.626C602.731 513.775 596.661 548.397 521.832 637.543L550.16 643C576.259 600.943 592.435 574.041 612.078 525.393Z" fill="#CC8342"/>
<path d="M604.159 323.503C611.111 352.897 614.328 376.958 621.791 450.626C642.363 403.647 629.48 350.801 604.159 323.503Z" fill="#CC8342"/>
<path d="M315.843 438.504C300.72 438.504 286.6 434.212 274.64 426.781H243.929C271.223 452.282 282.662 476.178 265.256 504.463C294.64 484.402 306.723 470.525 315.843 438.504Z" fill="#CC8342"/>
</svg>
