<svg width="24" height="24" viewBox="0 0 24 24" fill="none" xmlns="http://www.w3.org/2000/svg">
<path d="M20.9973 20.9997H8.99726M15.8863 14.8897L8.46126 7.4627M2.89026 12.6067L12.0833 3.4137C12.4583 3.03876 12.9669 2.82812 13.4973 2.82813C14.0276 2.82812 14.5362 3.03876 14.9113 3.4137L19.8613 8.3637C20.2362 8.73875 20.4468 9.24737 20.4468 9.7777C20.4468 10.308 20.2362 10.8166 19.8613 11.1917L10.6183 20.4347C10.2564 20.7962 9.76578 20.9993 9.25426 20.9993C8.74274 20.9993 8.25215 20.7962 7.89026 20.4347L2.89026 15.4347C2.51532 15.0596 2.30469 14.551 2.30469 14.0207C2.30469 13.4904 2.51532 12.9818 2.89026 12.6067Z" stroke="black" stroke-width="1.5" stroke-linecap="round" stroke-linejoin="round"/>
</svg>
