<svg width="766" height="888" viewBox="0 0 766 888" fill="none" xmlns="http://www.w3.org/2000/svg">
<path d="M411.638 670.582C373.25 684.562 352.925 682.56 317.601 670.582C315.87 697.621 310.671 711.788 295.818 735.961C352.349 757.741 384.131 756.948 439.796 735.961C425.168 712.026 418.069 697.827 411.638 670.582Z" fill="#E06539"/>
<path d="M466.078 528.13C378.941 550.077 333.801 550.765 260.427 528.13C261.736 536.931 263.254 545.365 265.099 553.644C338.806 576.245 381.404 578.058 460.63 553.644C462.547 545.55 464.343 537.09 466.078 528.13Z" fill="#E06539"/>
<path d="M317.601 670.582C352.925 682.56 373.25 684.562 411.638 670.582C437.061 628.804 450.524 596.316 460.63 553.644C381.404 578.058 338.806 576.245 265.099 553.644C273.143 589.743 287.399 622.892 317.601 670.582Z" fill="#EBC93D"/>
<path d="M256.036 490.546C257.314 504.054 258.685 516.417 260.427 528.13C333.801 550.765 378.941 550.077 466.078 528.13C468.296 516.669 470.413 504.391 472.551 491.018C471.3 494.928 463.753 498.532 451.722 501.5C444.985 503.162 436.841 504.625 427.61 505.831C420.074 506.816 411.813 507.629 403 508.24C399.077 508.511 395.045 508.743 390.918 508.932C382.418 509.32 373.519 509.527 364.354 509.527C350.85 509.527 337.923 509.078 326 508.26C321.452 507.947 317.051 507.581 312.819 507.165C280.004 503.941 257.394 497.733 256.036 490.546Z" fill="#EBC93D"/>
<path d="M448.846 351.129C448.8 364.976 448.222 378.819 446.721 392.74C453.307 386.731 460.543 380.658 468.482 374.533C480.506 336.118 488.336 303.414 497.175 288.407C477.852 304.307 467.281 318.251 448.846 351.129Z" fill="#346B4C"/>
<path d="M430.765 309.137C412.494 355.012 405.533 388.797 408.74 436.373C417.853 422.402 430.184 407.852 446.539 392.905C447.656 368.148 442.84 342.07 430.765 309.137Z" fill="#407553"/>
<path d="M502.488 190.605C480.43 213.261 468.109 227.394 446.065 272.461C447.141 299.07 448.932 325.108 448.846 351.129C460.16 279.773 469.532 242.527 502.488 190.605Z" fill="#3B825A"/>
<path d="M457.329 136.92C389.697 255.877 394.731 303.13 396.981 378C397.69 401.617 398.123 427.981 395.91 460.211C399.197 452.487 403.42 444.529 408.74 436.373C405.533 388.797 412.494 355.012 430.765 309.137C442.84 342.07 447.656 368.148 446.539 392.905L446.721 392.74C448.222 378.819 448.8 364.976 448.846 351.129C448.932 325.108 447.141 299.07 446.065 272.461C444.328 229.535 444.454 185.126 457.329 136.92Z" fill="#3A9956"/>
<path d="M351.699 470.326C355.85 470.238 360.073 470.193 364.354 470.193C370.512 470.193 376.55 470.286 382.428 470.465C370.878 331.882 426.896 255.574 370.198 54C355.033 132.625 327.157 174.954 318.617 240.038C311.781 292.13 317.331 358.8 351.699 470.326Z" fill="#346B4C"/>
<path d="M318.617 240.038C303.787 185.821 277.754 169.875 273.504 122.568C257.378 271.686 313.284 345.703 323.903 471.608C332.66 470.969 341.984 470.531 351.699 470.326C317.331 358.8 311.781 292.13 318.617 240.038Z" fill="#3B825A"/>
<path d="M214 270.867C230.415 345.849 228.781 386.06 290.059 475.541C297.883 474.203 306.804 473.075 316.55 472.204C291.158 384.244 262.786 340.406 214 270.867Z" fill="#406F75"/>
<path fill-rule="evenodd" clip-rule="evenodd" d="M472.736 489.86C472.736 490.248 472.674 490.635 472.551 491.018C472.573 490.879 472.596 490.74 472.618 490.601C472.657 490.354 472.697 490.107 472.736 489.86ZM256.036 490.546C255.993 490.318 255.972 490.089 255.972 489.86L256.036 490.546Z" fill="#49A7C0"/>
<path d="M364.354 509.527C373.519 509.527 382.418 509.32 390.918 508.932C389.53 503.284 388.23 497.758 387.015 492.349C385.327 484.835 383.802 477.545 382.428 470.465C376.55 470.286 370.512 470.193 364.354 470.193C360.073 470.193 355.85 470.238 351.699 470.326C355.548 482.816 359.759 495.869 364.354 509.527Z" fill="#346B4C"/>
<path fill-rule="evenodd" clip-rule="evenodd" d="M326 508.26C321.452 507.947 317.051 507.581 312.819 507.165C304.389 495.945 296.839 485.441 290.059 475.541C297.883 474.203 306.804 473.075 316.55 472.204C319.589 482.733 322.586 493.893 325.57 505.806L326 508.26Z" fill="#406F75"/>
<path d="M364.354 509.527C359.759 495.869 355.548 482.816 351.699 470.326C341.984 470.531 332.66 470.969 323.903 471.608C324.829 482.585 325.41 493.956 325.57 505.806L326 508.26C337.923 509.078 350.85 509.527 364.354 509.527Z" fill="#3B825A"/>
<path d="M391.916 470.834C393.055 467.347 394.382 463.804 395.91 460.211C398.123 427.981 397.69 401.617 396.981 378C388.317 413.705 384.479 433.858 382.428 470.465C385.641 470.563 388.805 470.686 391.916 470.834Z" fill="#3B825A"/>
<path d="M382.428 470.465C383.802 477.545 385.327 484.835 387.015 492.349C387.906 485.448 389.488 478.264 391.916 470.834C388.805 470.686 385.641 470.563 382.428 470.465Z" fill="#3B825A"/>
<path d="M256.036 490.546C257.394 497.733 280.004 503.941 312.819 507.165C304.389 495.945 296.839 485.441 290.059 475.541C269.073 479.127 255.972 484.216 255.972 489.86L256.036 490.546Z" fill="#977B65"/>
<path d="M325.57 505.806C325.41 493.956 324.829 482.585 323.903 471.608C321.405 471.791 318.952 471.99 316.55 472.204C319.589 482.733 322.586 493.893 325.57 505.806Z" fill="#977B65"/>
<path d="M507.801 308.074C492.5 310 480.705 327.741 480.705 365.465C483.557 363.428 486.488 361.387 489.5 359.34C487.5 342 493.103 322.373 507.801 319C539.5 315.5 559.5 407 526.5 426C519 429 510.5 420.5 507.801 411.724C507.048 412.575 506.308 413.411 505.58 414.232C504.076 415.93 502.625 417.568 501.223 419.165C504.082 429.796 514.176 436.706 527.99 436.706C557.883 427.845 558.797 368.95 541.083 334C533.296 318.636 521.909 307.899 507.801 308.074Z" fill="#005971"/>
<path d="M507.801 308.074C521.909 307.899 533.296 318.636 541.083 334C558.797 368.95 557.883 427.845 527.99 436.706C541.196 433.661 551.117 426.853 574.743 402.688V362V351.129C524.613 306.325 515 308.074 507.801 308.074Z" fill="#0285A9"/>
<path d="M574.743 351.129V362V402.688L711.5 528.13V395.703L574.743 351.129Z" fill="#49A7C0"/>
<path d="M513.5 408C514.881 408 516 406.657 516 405C516 403.779 515.392 402.728 514.52 402.26C513.595 403.773 512.593 405.295 511.514 406.822C511.97 407.538 512.69 408 513.5 408Z" fill="#005971"/>
<path d="M529 411C529 412.657 527.881 414 526.5 414C525.119 414 524 412.657 524 411C524 409.343 525.119 408 526.5 408C527.881 408 529 409.343 529 411Z" fill="#005971"/>
<path d="M535 396C535 397.657 533.881 399 532.5 399C531.119 399 530 397.657 530 396C530 394.343 531.119 393 532.5 393C533.881 393 535 394.343 535 396Z" fill="#005971"/>
<path d="M535 376C535 377.657 533.881 379 532.5 379C531.119 379 530 377.657 530 376C530 374.343 531.119 373 532.5 373C533.881 373 535 374.343 535 376Z" fill="#005971"/>
<path d="M531 356C531 357.657 529.881 359 528.5 359C527.119 359 526 357.657 526 356C526 354.343 527.119 353 528.5 353C529.881 353 531 354.343 531 356Z" fill="#005971"/>
<path d="M524 340C524 341.657 522.881 343 521.5 343C520.119 343 519 341.657 519 340C519 338.343 520.119 337 521.5 337C522.881 337 524 338.343 524 340Z" fill="#005971"/>
<path d="M512 331C512 332.657 510.881 334 509.5 334C508.119 334 507 332.657 507 331C507 329.343 508.119 328 509.5 328C510.881 328 512 329.343 512 331Z" fill="#005971"/>
<path d="M501 340C501 341.657 499.881 343 498.5 343C497.119 343 496 341.657 496 340C496 338.343 497.119 337 498.5 337C499.881 337 501 338.343 501 340Z" fill="#005971"/>
<path fill-rule="evenodd" clip-rule="evenodd" d="M514.52 402.26C522.083 389.886 524.474 378.049 521.5 367.849C520.592 364.736 519.185 361.776 517.273 359C516.181 357.414 514.923 355.887 513.5 354.427C511.423 352.296 508.993 350.304 506.207 348.471C503.384 350.232 500.623 351.99 497.922 353.745C497.973 353.507 498 353.257 498 353C498 351.343 496.881 350 495.5 350C494.119 350 493 351.343 493 353C493 354.327 493.718 355.452 494.713 355.848C492.949 357.014 491.211 358.178 489.5 359.34C487.5 342 493.103 322.373 507.801 319C539.5 315.5 559.5 407 526.5 426C519 429 510.5 420.5 507.801 411.724C509.126 410.085 510.363 408.45 511.514 406.822C511.97 407.538 512.69 408 513.5 408C514.881 408 516 406.657 516 405C516 403.779 515.392 402.728 514.52 402.26ZM529 411C529 412.657 527.881 414 526.5 414C525.119 414 524 412.657 524 411C524 409.343 525.119 408 526.5 408C527.881 408 529 409.343 529 411ZM532.5 399C533.881 399 535 397.657 535 396C535 394.343 533.881 393 532.5 393C531.119 393 530 394.343 530 396C530 397.657 531.119 399 532.5 399ZM535 376C535 377.657 533.881 379 532.5 379C531.119 379 530 377.657 530 376C530 374.343 531.119 373 532.5 373C533.881 373 535 374.343 535 376ZM528.5 359C529.881 359 531 357.657 531 356C531 354.343 529.881 353 528.5 353C527.119 353 526 354.343 526 356C526 357.657 527.119 359 528.5 359ZM524 340C524 341.657 522.881 343 521.5 343C520.119 343 519 341.657 519 340C519 338.343 520.119 337 521.5 337C522.881 337 524 338.343 524 340ZM509.5 334C510.881 334 512 332.657 512 331C512 329.343 510.881 328 509.5 328C508.119 328 507 329.343 507 331C507 332.657 508.119 334 509.5 334ZM501 340C501 341.657 499.881 343 498.5 343C497.119 343 496 341.657 496 340C496 338.343 497.119 337 498.5 337C499.881 337 501 338.343 501 340Z" fill="#0285A9"/>
<path d="M495.5 350C494.119 350 493 351.343 493 353C493 354.327 493.718 355.452 494.713 355.848C495.773 355.148 496.843 354.447 497.922 353.745C497.973 353.507 498 353.257 498 353C498 351.343 496.881 350 495.5 350Z" fill="#005971"/>
<path d="M480.705 365.465C476.457 368.499 472.385 371.522 468.482 374.533C460.543 380.658 453.307 386.731 446.721 392.74L446.539 392.905C430.184 407.852 417.853 422.402 408.74 436.373C403.42 444.529 399.197 452.487 395.91 460.211C394.382 463.804 393.055 467.347 391.916 470.834C389.488 478.264 387.906 485.448 387.015 492.349C388.23 497.758 389.53 503.284 390.918 508.932C395.045 508.743 399.077 508.511 403 508.24C422.041 433.933 448.033 401.328 513.5 354.427C511.423 352.296 508.993 350.304 506.207 348.471C503.384 350.232 500.623 351.99 497.922 353.745C496.843 354.447 495.773 355.148 494.713 355.848C492.949 357.014 491.211 358.178 489.5 359.34C486.488 361.387 483.557 363.428 480.705 365.465Z" fill="#94DBEF"/>
<path d="M403 508.24C411.813 507.629 420.074 506.816 427.61 505.831C446.474 433.303 465.304 400.838 517.273 359C516.181 357.414 514.923 355.887 513.5 354.427C448.033 401.328 422.041 433.933 403 508.24Z" fill="#D0ECFA"/>
<path d="M427.61 505.831C436.841 504.625 444.985 503.162 451.722 501.5C456.5 419.165 507.801 399 521.5 367.849C520.592 364.736 519.185 361.776 517.273 359C465.304 400.838 446.474 433.303 427.61 505.831Z" fill="#8ACBDC"/>
<path d="M468.731 484.544C475.732 450.242 485.253 437.363 501.223 419.165C502.625 417.568 504.076 415.93 505.58 414.232C506.308 413.411 507.048 412.575 507.801 411.724C509.126 410.085 510.363 408.45 511.514 406.822C512.593 405.295 513.595 403.773 514.52 402.26C522.083 389.886 524.474 378.049 521.5 367.849C507.801 399 456.5 419.165 451.722 501.5C463.753 498.532 471.3 494.928 472.551 491.018L472.618 490.601L472.736 489.86C472.736 488.018 471.341 486.235 468.731 484.544Z" fill="#5AAEC4"/>
<path fill-rule="evenodd" clip-rule="evenodd" d="M507.797 308.075C507.95 308.073 508.102 308.072 508.254 308.073C508.1 308.074 507.948 308.075 507.797 308.075Z" fill="#8ACBDC"/>
<path d="M711.496 395.704L574.739 351.129V362V362.361L711.496 418V395.704Z" fill="#94DBEF"/>
<path d="M574.739 362V351.129C525.662 307.266 515.418 308.022 508.254 308.073C522.151 308.132 533.376 318.802 541.079 334L574.739 362.361V362Z" fill="#8ACBDC"/>
</svg>
