<svg width="766" height="888" viewBox="0 0 766 888" fill="none" xmlns="http://www.w3.org/2000/svg">
<path d="M688.01 246.5C633.013 314 574.513 331 522.509 340.5C537.791 344.095 546.609 356.487 546.166 369.5C614.551 352.949 645.285 322.293 695.508 254.5C717.139 256.717 725.774 250.108 741.513 239C741.013 236.773 734.013 243 729.013 244C736.013 236 745.513 232.5 744.513 229.5C743.013 227 732.013 236.5 725.513 239.5C726.513 236.5 744.513 223.5 742.513 219.5C741.513 216.5 726.087 231.665 722.513 232.5C726.513 221.5 739.013 216 735.013 214C727.342 211.723 713.803 231.159 709.513 231.5L698.513 231C700.013 224.5 699.288 220.222 695.513 219.5C693.013 219.5 694.513 225 692.513 227C685.513 233.5 689.513 235.5 688.01 246.5Z" fill="#FFE5AE"/>
<path d="M234.512 372C168.512 395 133.512 377.5 80.0121 367.5C75.5121 366 78.0121 361.5 69.0121 359.5C59.0121 358 60.5121 351.5 56.0121 348.5C51.5121 345.5 46.5121 344.5 44.5121 346C43.1265 347.967 45.0103 350.5 48.5103 353.5C51.5103 356.5 51.0103 363.5 47.0103 363C27.4453 363.048 22.185 363.864 21.0103 367C20.6184 369.83 31.5078 370 44.0103 371.5C40.0078 374.5 21.5078 372.5 23.5078 377C24.5078 381.5 41.5078 379 46.5078 381C38.5078 383 28.7415 382.574 29.5078 387C30.0078 390 44.0078 385.5 50.5078 387C41.5078 393.5 36.3306 396.661 37.5078 399.5C46.8285 393.669 52.4904 390.924 58.5078 389C66.2932 387.222 69.8844 382.997 79.5078 374C148.129 412.804 187.533 422.027 230.163 410.5C219.334 400.305 223.186 384.418 234.512 372Z" fill="#FFE5AE"/>
<path d="M435.01 348.5C428.513 349.046 417.104 346.617 413.01 343C401.119 336.818 406.87 301.234 362.291 296.05C359.983 295.95 357.56 295.767 355.013 295.5C357.024 304.113 357.976 312.863 359.512 330C359.012 334.5 346.321 336.596 323.512 337.5C324.227 352.329 327.871 365.045 333.51 375.178C350.436 405.59 385.342 412.732 413.01 383.88C421.194 375.346 428.745 363.662 435.01 348.5Z" fill="#FFE5AE"/>
<path d="M506.218 681.794L498.008 668.683C480.736 692.128 483.936 706.634 508.008 734.402C515.443 729.328 522.729 724.887 530.508 720.584L506.218 681.794Z" fill="#FFE5AE"/>
<path d="M262.008 699.087L271.008 749.5L315.008 754.754C314.308 727.48 314.208 710.957 303.508 696.728C290.197 697.402 276.437 698.13 262.008 699.087Z" fill="#FFE5AE"/>
<path d="M414.008 687.915C414.008 687.915 464.911 731.112 481.508 749.5C492.592 740.147 498.667 740.775 508.008 734.402C483.936 706.634 480.736 692.128 498.008 668.683C485.564 672.596 473.612 675.893 462.008 678.687C445.437 682.678 429.576 685.643 414.008 687.915Z" fill="#E6BB9C"/>
<path d="M327.008 695.538C319.305 695.94 311.487 696.324 303.508 696.728C314.208 710.957 314.308 727.48 315.008 754.754L338.008 757.5L342.508 694.686C337.384 694.985 332.222 695.266 327.008 695.538Z" fill="#E6BB9C"/>
<path d="M698.513 258.5C720.013 261.5 742.013 241 741.513 239C725.774 250.108 717.139 256.717 695.508 254.5C645.285 322.293 614.551 352.949 546.166 369.5C545.87 378.204 541.431 387.186 532.013 394C616.013 373 655.513 322.5 698.513 258.5Z" fill="#E6BB9C"/>
<path d="M37.5078 399.5C40.0078 402.5 52.5078 392 59.5078 392C68.5078 390.5 71.5078 385 79.0078 378C140.008 409 161.008 438 248.508 419C240.153 417.248 234.159 414.261 230.163 410.5C187.533 422.027 148.129 412.804 79.5078 374C69.8844 382.997 66.2932 387.222 58.5078 389C52.4904 390.924 46.8285 393.669 37.5078 399.5Z" fill="#E6BB9C"/>
<path d="M409.939 294.5C411.192 283.117 414.046 270.839 419.51 258.5C403.495 283.955 393.025 297.379 362.291 296.05C406.87 301.234 401.119 336.818 413.01 343C410.742 333.288 407.64 315.403 409.939 294.5Z" fill="#E6BB9C"/>
<path fill-rule="evenodd" clip-rule="evenodd" d="M384.508 240.5C381.008 258.5 369.265 271.124 357.508 271.5C347.05 270.328 344.508 257.5 344.508 245.5C344.508 243.047 347.208 242.559 349.513 242.142C350.497 241.964 351.409 241.799 352.008 241.5C354.008 240.5 358.508 238.5 363.508 238.5C369.333 238.791 371.765 239.761 374.164 240.718C375.883 241.403 377.585 242.082 380.508 242.5C381.868 242.5 383.227 241.021 384.024 240.154C384.692 239.427 384.964 239.132 384.508 240.5ZM379.508 244.5C379.437 244.924 379.346 245.3 379.232 245.632C374.846 261.534 350.439 272.459 347.508 249.5L347.008 246C365.008 237 369.508 243.5 379.508 244.5Z" fill="#EB8D59"/>
<path d="M374.008 247.5C359.008 242.5 353.508 249 347.508 249.5C350.439 272.459 374.846 261.534 379.232 245.632C378.536 247.651 376.986 248.034 374.008 247.5Z" fill="#D45236"/>
<path d="M347.508 249.5C353.508 249 359.008 242.5 374.008 247.5C376.986 248.034 378.536 247.651 379.232 245.632C379.335 245.257 379.427 244.88 379.508 244.5C369.508 243.5 365.008 237 347.008 246L347.508 249.5Z" fill="white"/>
<path d="M535.008 294.5C526.008 297 507.508 303 510.508 295C515.772 267.012 436.508 302 419.51 258.5C414.046 270.839 411.192 283.117 409.939 294.5C414.65 295.232 417.133 295.745 421.008 297.5C444.008 308 431.008 327 490.508 330.5C525.008 331.5 517.508 329 538.008 319C552.508 313.5 565.508 311 564.508 302C561.008 293 548.508 291.5 535.008 294.5Z" fill="#103456"/>
<path d="M427.013 257C425.424 261.06 423.681 261.061 419.51 258.5C436.508 302 515.772 267.012 510.508 295C521.508 268 558.008 287 575.508 287C588.086 287.927 617.508 272.5 632.008 261.5C637.508 256.5 646.772 248.943 641.008 244C637.334 241.615 635.405 243.932 632.008 251C620.508 270 578.508 275.5 567.008 263C530.597 230.636 485.008 268 432.013 249.5C428.939 251.727 427.98 253.446 427.013 257Z" fill="#036896"/>
<path d="M422.013 238C433.013 229.5 438.013 242.5 432.013 249.5C485.008 268 530.597 230.636 567.008 263C557.008 253 568.508 238.5 581.508 242C591.508 246 602.508 249 610.508 243C620.008 236 625.008 223.828 630.008 216C636.95 205.912 641.572 196.319 638.008 192.5C631.508 182 603.508 231.5 580.008 219C532.008 257 463.508 202.5 422.013 238Z" fill="#0179AB"/>
<path d="M621.508 176C591.008 154 543.508 215.5 518.508 202.5C472.508 234 445.508 202.5 422.013 238C463.508 202.5 532.008 257 580.008 219C599.008 193 629.618 184.828 621.508 176Z" fill="#977B65"/>
<path d="M400.013 197.5C404.834 206.539 407.799 210.333 410.237 213.453C413.867 218.098 416.329 221.249 422.013 238C445.508 202.5 472.508 234 518.508 202.5C567.508 169 565.008 147.5 558.008 146C545.508 139 543.008 183.5 524.465 192C501.575 206.677 475.562 205.305 466.508 197.5C439.569 186.88 425.243 189.616 400.013 197.5Z" fill="#BF9A7D"/>
<path d="M367.513 186C377.585 195.013 384.187 198.419 400.013 197.5C425.243 189.616 439.569 186.88 466.508 197.5C519.508 204.5 542.008 130 513.008 130C507.508 148.5 506.738 163.032 482.508 167C463.008 169.5 455.008 156.5 436.508 156.5C416.508 156.5 410.008 165 396.508 166C362.816 163.252 351.291 166.083 355.508 186C327.194 195.616 335.008 215.5 337.652 225.5C339.077 223.306 339.072 222.078 339.066 220.43C339.062 219.3 339.058 217.972 339.513 216C344.978 196.87 351.359 193.896 359.843 189.942C362.225 188.831 364.773 187.644 367.513 186Z" fill="#EB8D59"/>
<path d="M299.008 338.003C292.262 339.589 286.51 342.48 279.175 346.166L278.512 346.5C278.989 439.413 360.587 459.554 404.145 508.676C397.991 499.216 397.366 486.753 397.649 465.5C366.363 434.287 304.234 422.029 299.008 338.003Z" fill="#EFD42D"/>
<path d="M527.684 658.5C467.737 587.354 413.283 543.873 409.197 516.145C414.01 556.917 436.425 592.441 498.008 668.683C507.587 665.671 517.457 662.294 527.684 658.5Z" fill="#036896"/>
<path d="M420.513 474.5C438.013 465 453.013 438 473.513 405.5C490.896 403.248 502.745 401.698 516.008 398.483C519.353 389.008 520.824 381.122 520.293 374.621L473.513 383.88L473.39 383.911C454.723 388.666 441.484 392.037 430.508 409C425.592 416.597 424.578 426.225 422.247 435.652C420.823 441.413 418.907 447.099 415.307 452.201C411.618 457.431 406.159 462.047 397.649 465.5C397.366 486.753 397.991 499.216 404.145 508.676C405.827 510.572 407.452 512.511 409.013 514.5C410.429 506.112 411.76 499.693 413.754 493C415.408 487.448 417.519 481.708 420.513 474.5Z" fill="#036896"/>
<path d="M532.013 394C541.431 387.186 545.87 378.204 546.166 369.5L520.293 374.621C520.824 381.122 519.353 389.008 516.008 398.483C521.016 397.268 526.227 395.817 532.013 394Z" fill="#0179AB"/>
<path d="M248.508 419C261.637 416.737 268.025 413.065 279.008 405.5C264.318 403.206 254.879 403.237 244.187 405.92C239.861 407.005 235.33 408.525 230.163 410.5C234.159 414.261 240.153 417.248 248.508 419Z" fill="#0179AB"/>
<path d="M333.51 375.178C327.871 365.045 324.227 352.329 323.512 337.5C312.898 336.16 305.494 336.478 299.008 338.003C304.234 422.029 366.363 434.287 397.649 465.5C406.159 462.047 411.618 457.431 415.307 452.201C398.287 408.877 349.673 416.964 333.51 375.178Z" fill="#FFE333"/>
<path d="M413.01 383.88C385.342 412.732 350.436 405.59 333.51 375.178C349.673 416.964 398.287 408.877 415.307 452.201C418.907 447.099 420.823 441.413 422.247 435.652C421.259 421.189 418.315 405.448 413.01 383.88Z" fill="#F3D93B"/>
<path d="M435.01 348.5C428.745 363.662 421.194 375.346 413.01 383.88C418.315 405.448 421.259 421.189 422.247 435.652C424.578 426.225 425.592 416.597 430.508 409C441.484 392.037 454.723 388.666 473.39 383.911L473.513 383.88L520.293 374.621C518.426 351.776 491.837 346.032 435.01 348.5Z" fill="#EFB22C"/>
<path d="M522.509 340.5C517.355 338.183 441.05 346.153 435.01 348.5C491.837 346.032 518.426 351.776 520.293 374.621L546.166 369.5C546.609 356.487 537.791 344.095 522.509 340.5Z" fill="#EB8D59"/>
<path d="M279.008 405.5C275.708 423.601 275.079 433.43 291.008 446.5C422.425 542 390.508 562 498.008 668.683C436.425 592.441 414.01 556.917 409.197 516.145C409.115 515.59 409.054 515.042 409.013 514.5C407.095 512.661 405.489 510.74 404.145 508.676C360.587 459.554 278.989 439.413 278.512 346.5C251.803 368.964 239.284 383.226 244.187 405.92C254.879 403.237 264.318 403.206 279.008 405.5Z" fill="#EFB22C"/>
<path d="M498.008 668.683C390.508 562 422.425 542 291.008 446.5C311.656 526.53 388.836 567.013 462.008 678.687C473.612 675.893 485.564 672.596 498.008 668.683Z" fill="#EB8D59"/>
<path d="M278.512 346.5C259.372 356.779 249.943 362.312 234.512 372C223.186 384.418 219.334 400.305 230.163 410.5C235.33 408.525 239.861 407.005 244.187 405.92C239.284 383.226 251.803 368.964 278.512 346.5Z" fill="#EB8D59"/>
<path d="M414.008 687.915C429.576 685.643 445.437 682.678 462.008 678.687C388.836 567.013 311.656 526.53 291.008 446.5C300.789 520.965 297.852 557.58 402.008 689.54C405.993 689.041 409.991 688.501 414.008 687.915Z" fill="#EFB22C"/>
<path d="M291.008 446.5C292.508 472.5 291.445 501.795 283.008 519C288.008 559.5 279.717 613.561 385.508 691.396C390.997 690.845 396.491 690.231 402.008 689.54C297.852 557.58 300.789 520.965 291.008 446.5Z" fill="#EB8D59"/>
<path d="M366.508 693.076C372.855 692.584 379.178 692.031 385.508 691.396C279.717 613.561 288.008 559.5 283.008 519C265.333 593.537 264.339 633.53 303.508 696.728C311.487 696.324 319.305 695.94 327.008 695.538C332.222 695.266 337.384 694.985 342.508 694.686C350.583 694.213 358.563 693.691 366.508 693.076Z" fill="#FFE333"/>
<path d="M283.008 519C230.685 564.759 225.008 639 242.508 700.5C249.15 699.974 255.644 699.508 262.008 699.087C276.437 698.13 290.197 697.402 303.508 696.728C264.339 633.53 265.333 593.537 283.008 519Z" fill="#EFD42D"/>
<path d="M352.508 218.5C347.504 217.411 344.78 218.405 340.008 220.5C344.471 217.07 347.082 216.278 352.508 218.5Z" fill="black"/>
<path d="M376.008 217C383.905 212.276 387.785 212.746 394.008 217C387.641 213.996 383.592 213.906 376.008 217Z" fill="black"/>
<path d="M360.008 229.5L367.008 231C363.916 232.602 361.944 231.428 360.008 229.5Z" fill="#BF9A7D"/>
<path d="M360.508 222.5C362.454 220.306 363.947 218.034 364.508 214.5C363.356 217.494 361.568 219.639 359.877 221.669C357.896 224.046 356.047 226.264 355.508 229.5C356.46 226.835 358.049 225.141 359.527 223.565C359.863 223.207 360.192 222.855 360.508 222.5Z" fill="#BF9A7D"/>
<path d="M423.508 242.5C427.013 236.5 431.008 239 428.508 247.5C428.935 240.378 428.159 238.586 423.508 242.5Z" fill="#977B65"/>
<path fill-rule="evenodd" clip-rule="evenodd" d="M427.013 257C425.424 261.06 423.681 261.061 419.51 258.5C403.495 283.955 393.025 297.379 362.291 296.05C360.001 295.784 357.578 295.598 355.013 295.5C341.728 290.186 331.311 270.756 329.329 253.324C328.981 249.943 328.882 247.925 329.214 243.065C329.722 238.247 331.103 233.911 333.51 230.5C335.543 228.339 336.833 226.76 337.652 225.5C339.077 223.306 339.072 222.078 339.066 220.43C339.062 219.3 339.058 217.972 339.513 216C344.978 196.87 351.359 193.896 359.843 189.942C362.225 188.831 364.773 187.644 367.513 186C377.585 195.013 384.187 198.419 400.013 197.5C404.834 206.539 407.799 210.333 410.237 213.453C413.867 218.098 416.329 221.249 422.013 238C433.013 229.5 438.013 242.5 432.013 249.5C428.939 251.727 427.98 253.446 427.013 257ZM360.008 229.5L367.008 231C363.916 232.602 361.944 231.428 360.008 229.5ZM384.508 240.5C381.008 258.5 369.265 271.124 357.508 271.5C347.05 270.328 344.508 257.5 344.508 245.5C344.508 243.047 347.208 242.559 349.513 242.142C350.497 241.964 351.409 241.799 352.008 241.5C354.008 240.5 358.508 238.5 363.508 238.5C369.333 238.791 371.765 239.761 374.164 240.718C375.883 241.403 377.585 242.082 380.508 242.5C381.868 242.5 383.227 241.021 384.024 240.154C384.692 239.427 384.964 239.132 384.508 240.5ZM352.508 218.5C347.504 217.411 344.78 218.405 340.008 220.5C344.471 217.07 347.082 216.278 352.508 218.5ZM376.008 217C383.905 212.276 387.785 212.746 394.008 217C387.641 213.996 383.592 213.906 376.008 217ZM360.508 222.5C362.454 220.306 363.947 218.034 364.508 214.5C363.356 217.494 361.568 219.639 359.877 221.669C357.896 224.046 356.047 226.264 355.508 229.5C356.46 226.835 358.049 225.141 359.527 223.565C359.863 223.207 360.192 222.855 360.508 222.5ZM423.508 242.5C427.013 236.5 431.008 239 428.508 247.5C428.935 240.378 428.159 238.586 423.508 242.5ZM424.508 247C424.368 249.001 422.731 249.931 421.008 250C422.567 249.003 423.338 248.349 424.508 247Z" fill="#FFE5AE"/>
<path d="M424.508 247C424.368 249.001 422.731 249.931 421.008 250C422.567 249.003 423.338 248.349 424.508 247Z" fill="#977B65"/>
</svg>
