<svg width="24" height="24" viewBox="0 0 24 24" fill="none" xmlns="http://www.w3.org/2000/svg">
<path d="M19.922 9.63972L20.849 8.71272C21.5864 7.97529 22.0007 6.97511 22.0007 5.93222C22.0007 4.88933 21.5864 3.88916 20.849 3.15172C20.1116 2.41429 19.1114 2 18.0685 2C17.0256 2 16.0254 2.41429 15.288 3.15172L14.361 4.07872L5.839 12.5987C5.262 13.1767 4.973 13.4657 4.725 13.7837C4.43239 14.1592 4.18126 14.5652 3.976 14.9947C3.803 15.3587 3.674 15.7467 3.416 16.5207L2.322 19.8017M19.922 9.63972C19.922 9.63972 17.953 9.52372 16.215 7.78572C14.477 6.04872 14.362 4.07872 14.362 4.07872M19.922 9.63972L11.401 18.1597C10.824 18.7367 10.535 19.0257 10.217 19.2737C9.84152 19.5663 9.43549 19.8175 9.006 20.0227C8.642 20.1957 8.255 20.3247 7.48 20.5827L4.199 21.6767M4.199 21.6767L3.397 21.9447C3.21005 22.0074 3.00932 22.0167 2.81738 21.9716C2.62544 21.9264 2.44989 21.8287 2.31047 21.6893C2.17104 21.5498 2.07327 21.3743 2.02814 21.1823C1.98301 20.9904 1.99231 20.7897 2.055 20.6027L2.323 19.8007L4.199 21.6767Z" stroke="black" stroke-width="1.5"/>
</svg>
